<svg xmlns="http://www.w3.org/2000/svg" viewBox="0 0 446.36 119.91"><defs><style>.cls-1{fill:#3ac582;}.cls-2{fill:#148f19;}</style></defs><title>Ресурс 2</title><g id="Слой_2" data-name="Слой 2"><g id="Слой_1-2" data-name="Слой 1"><path d="M171.09,75.67v6.08c0,2.29,0,4.18-.17,6.11l0,0c.73-1.5,1.63-3.06,2.68-4.78l4.67-7.43h1.86V90.11h-1.76V84c0-2.33,0-4,.17-5.87l-.06,0a44,44,0,0,1-2.68,4.86l-4.52,7.18h-2V75.67Z"/><path d="M185.29,75.67v6h7v-6h1.89V90.11h-1.89V83.34h-7v6.77h-1.86V75.67Z"/><path d="M200.14,77.25h-4.39V75.67h10.69v1.59H202V90.11h-1.88Z"/><path d="M215.52,83.34h-5.61v5.21h6.25v1.56H208V75.67h7.8v1.56h-5.93V81.8h5.61Z"/><path d="M218.58,75.84a21.54,21.54,0,0,1,3.58-.28,5.93,5.93,0,0,1,4,1.2,3.88,3.88,0,0,1,1.26,3,4.25,4.25,0,0,1-1.11,3.08,6,6,0,0,1-4.41,1.58,6.39,6.39,0,0,1-1.5-.13v5.78h-1.86Zm1.86,7A6.23,6.23,0,0,0,222,83c2.25,0,3.62-1.09,3.62-3.08S224.26,77,222.2,77a7.79,7.79,0,0,0-1.76.15Z"/><path d="M231.84,75.67v6h7v-6h1.88V90.11h-1.88V83.34h-7v6.77H230V75.67Z"/><path d="M251.42,83.34h-5.61v5.21h6.26v1.56h-8.12V75.67h7.8v1.56h-5.93V81.8h5.61Z"/><path d="M257.34,77.25h-4.39V75.67h10.69v1.59h-4.41V90.11h-1.89Z"/><path d="M274.09,82V83.4H268.8V82Z"/><path d="M283.24,85.57l-1.5,4.54h-1.93l4.91-14.44H287l4.93,14.44h-2l-1.54-4.54ZM288,84.11,286.56,80c-.32-.94-.54-1.8-.75-2.64h0c-.21.86-.45,1.74-.73,2.61l-1.41,4.18Z"/><path d="M304.45,75.67V90.11h-1.86V77.23h-6.71V90.11H294V75.67Z"/><path d="M310.45,77.25h-4.39V75.67h10.69v1.59h-4.41V90.11h-1.89Z"/><path d="M325.83,83.34h-5.61v5.21h6.26v1.56h-8.12V75.67h7.8v1.56h-5.93V81.8h5.61Z"/><path d="M330.73,75.67v6.41h.58l4.95-6.41h2.25L333,82.29c2.38.32,3.3,1.78,4,3.73a38,38,0,0,0,1.59,4.09h-2a25.49,25.49,0,0,1-1.31-3.41c-.66-1.91-1.58-3.21-4-3.21h-.6v6.62h-1.84V75.67Z"/><path d="M342.94,85.57l-1.5,4.54h-1.93l4.91-14.44h2.25l4.93,14.44h-2l-1.54-4.54Zm4.74-1.46L346.27,80c-.32-.94-.54-1.8-.75-2.64h0c-.21.86-.45,1.74-.73,2.61l-1.41,4.18Z"/><path d="M181.79,42.1l1.9,7.09c.09.21.09.61-.43.61h-2.14a.55.55,0,0,1-.61-.43l-1.8-6.76c-.61-2.23-1.77-2.84-3.88-2.84h-4l0,9.54c0,.46-.15.49-.55.49h-2c-.37,0-.55,0-.55-.49V28.89c0-.46.18-.49.55-.49h2c.4,0,.58,0,.49.49V37h3.79c1.25,0,2.93-.31,3.67-3l1.31-5.17a.54.54,0,0,1,.61-.43h1.93a.41.41,0,0,1,.43.61l-1.31,5.47a5.65,5.65,0,0,1-2.51,3.76v.15C180.85,39.07,181.3,40.26,181.79,42.1Z"/><path d="M199.71,49.31,198.27,45H190l-1.44,4.34a.64.64,0,0,1-.73.49h-2.35c-.46,0-.55-.31-.43-.64l6.79-19.47c.37-1.07.67-1.31,1.74-1.34h1c1.22,0,1.5.34,1.83,1.34l6.82,19.47c.12.34,0,.64-.4.64h-2.29C200.07,49.8,199.86,49.8,199.71,49.31Zm-5.59-17.36H194l-1.28,4.19-1.86,6.05h6.54l-1.86-5.9Z"/><path d="M210.86,28.37h9.45a1.81,1.81,0,0,1,2,2.08V49.31c0,.46-.15.49-.55.49h-2.11c-.37,0-.55,0-.55-.49V31.18h-7.21l-.21,3c-.64,9.2-.95,14.61-6.51,16.08-.34.09-.61.06-.76-.46L204,48.33c-.15-.61.15-.67.37-.76,3.52-1.47,3.61-4.37,4.25-13.17l.31-3.94C209,29,209.76,28.37,210.86,28.37Z"/><path d="M229.72,50.44a9.09,9.09,0,0,1-2.38-.34c-.4-.12-.49-.18-.4-.52l.34-1.74c.09-.37.24-.34.58-.31a12.19,12.19,0,0,0,2,.12,2.38,2.38,0,0,0,2.41-1.77l.76-2h-.55c-.7,0-1.16,0-1.62-1.22l-5.78-13.94c-.09-.21,0-.4.34-.4h2.45c.46,0,.55.18.64.46l3.06,7.76,2,5.29h.21l2-5.59,2.84-7.52c.12-.34.28-.4.61-.4h2.26c.34,0,.4.21.31.43l-6.73,17.82C234,49.74,232.41,50.44,229.72,50.44Z"/><path d="M246.93,49.8h-1.74c-.46,0-.7-.06-.7-.64V33.78c0-2.84,1.25-5.41,5.32-5.41H258c.58,0,.64.24.64.7v1.44c0,.52-.06.7-.64.7h-8.16c-1.56,0-2.17.61-2.17,2.08V49.16C247.63,49.74,247.45,49.8,246.93,49.8Z"/><path d="M271.39,49.31,269.95,45h-8.28l-1.44,4.34a.64.64,0,0,1-.73.49h-2.35c-.46,0-.55-.31-.43-.64l6.79-19.47c.37-1.07.67-1.31,1.74-1.34h1c1.22,0,1.5.34,1.83,1.34l6.82,19.47c.12.34,0,.64-.4.64h-2.29C271.75,49.8,271.54,49.8,271.39,49.31Zm-5.59-17.36h-.15l-1.28,4.19-1.86,6.05H269l-1.86-5.9Z"/><path d="M289.18,49.8H287.1c-.37,0-.55,0-.55-.49V48c-6.08-.58-9.45-3.94-9.45-9.23s3.85-8.65,9.45-9.23v-.67c0-.46.18-.49.55-.49h2.08c.4,0,.55,0,.55.49v.67c6.24.52,9.63,3.88,9.63,9.23s-4,8.65-9.63,9.23v1.28C289.73,49.77,289.57,49.8,289.18,49.8Zm-9-11c0,3.48,2,6.21,6.42,6.6V32.16C282.48,32.65,280.13,35.34,280.13,38.8Zm16.2,0c0-3.52-2-6.27-6.6-6.66v13.3C294.22,45.09,296.33,42.34,296.33,38.8Z"/><path d="M315.31,49.31,313.87,45h-8.28l-1.44,4.34a.64.64,0,0,1-.73.49h-2.35c-.46,0-.55-.31-.43-.64l6.79-19.47c.37-1.07.67-1.31,1.74-1.34h1c1.22,0,1.5.34,1.83,1.34l6.82,19.47c.12.34,0,.64-.4.64h-2.29C315.68,49.8,315.46,49.8,315.31,49.31Zm-5.59-17.36h-.15l-1.28,4.19-1.86,6.05H313l-1.86-5.9Z"/><path d="M323.29,28.34h7.12c3.91,0,6.72,2.6,6.72,6.42,0,2.23-1.19,6.63-6.85,6.63h-5.53v7.76c0,.58-.18.64-.7.64h-1.71c-.46,0-.7-.06-.7-.64V30C321.64,28.8,322.1,28.34,323.29,28.34Zm6.36,2.9h-4.86v7.37h5c2.9,0,4.13-1.47,4.13-3.64C333.87,33.42,333,31.24,329.65,31.24Z"/><path d="M357.59,34l-1.74,4.55-2.93,7.37c-.4,1.07-.67,1.34-1.74,1.34H350c-1.07,0-1.34-.28-1.74-1.34l-3-7.24-1.71-4.31h-.18V49.16c0,.58-.18.64-.7.64h-1.62c-.46,0-.7-.06-.7-.64V30.05c0-1.07.34-1.68,1.65-1.68H343c.95,0,1.38.21,1.83,1.31l3.94,10,1.77,4.65h.12l1.74-4.55,4-10.06c.46-1.1.89-1.31,1.83-1.31h.95c1.31,0,1.65.61,1.65,1.68v19.1c0,.58-.18.64-.7.64h-1.62c-.46,0-.7-.06-.7-.64V34Z"/><path d="M378.28,49.31,376.84,45h-8.28l-1.44,4.34a.64.64,0,0,1-.73.49H364c-.46,0-.55-.31-.43-.64l6.79-19.47c.37-1.07.67-1.31,1.74-1.34h1c1.22,0,1.5.34,1.83,1.34l6.82,19.47c.12.34,0,.64-.4.64H379.1C378.65,49.8,378.43,49.8,378.28,49.31Zm-5.59-17.36h-.15l-1.28,4.19-1.86,6.05h6.54l-1.86-5.9Z"/><path d="M403.22,48.27l-.37,6.08c0,.46-.21.52-.43.52h-1.71c-.24,0-.37-.18-.4-.52l-.21-4.55H386.56a1.85,1.85,0,0,1-2-2.08V28.86c0-.46.18-.49.55-.49h2.08c.4,0,.55,0,.55.49V47H398V28.86c0-.46.18-.49.55-.49h2c.4,0,.55,0,.55.49V46.93l1,.06C403.31,47.08,403.22,47.78,403.22,48.27Z"/><path d="M417.31,37.36l-6.54,11.13c-.58.95-.86,1.31-1.83,1.31h-1c-1.25,0-1.65-.55-1.65-1.68V28.86c0-.46.18-.49.55-.49h2c.4,0,.55,0,.55.49V45.4h.09l2.51-4.31,6.72-11.4c.58-.95.86-1.31,1.83-1.31h1c1.25,0,1.65.55,1.65,1.68V49.31c0,.46-.18.49-.55.49h-2c-.4,0-.55,0-.55-.49V32.65H420Z"/><path d="M435.56,40.72c-2,0-3.48.58-4.13,2.87l-1.56,5.78a.55.55,0,0,1-.61.43H427a.41.41,0,0,1-.43-.61l1.65-6.11A4.16,4.16,0,0,1,431,39.9a5.53,5.53,0,0,1-3.45-5.38c0-3.58,2.66-6.17,6.6-6.17h7c1.19,0,1.65.46,1.65,1.65V49.31c0,.46-.18.49-.55.49h-2.14c-.4,0-.55,0-.55-.49V40.72ZM434.74,38h4.83V31.24h-5.07c-3.18,0-3.76,2.08-3.76,3.39C430.73,36.44,431.83,38,434.74,38Z"/><line class="cls-1" x1="169" y1="62.55" x2="445.07" y2="62.55"/><path class="cls-1" d="M445.07,63.84H169a1.29,1.29,0,0,1,0-2.59H445.07a1.29,1.29,0,1,1,0,2.59Z"/><path class="cls-1" d="M59.61,0A21.51,21.51,0,0,0,38.12,21.49V45.64H62.28A21.51,21.51,0,0,0,83.77,24.16V0Zm2.67,38.13H45.63V21.49a14,14,0,0,1,14-14H76.26V24.16A14,14,0,0,1,62.28,38.13Z"/><path class="cls-2" d="M21.48,38.14A21.51,21.51,0,0,0,0,59.62V83.77H24.15A21.51,21.51,0,0,0,45.63,62.29V38.14Zm16.65,7.5V62.29a14,14,0,0,1-14,14H7.5V59.62a14,14,0,0,1,14-14Z"/><path class="cls-1" d="M97.74,36.14A21.51,21.51,0,0,0,76.26,57.63V81.79h24.16A21.51,21.51,0,0,0,121.9,60.3V36.14Zm2.67,38.13H83.77V57.63a14,14,0,0,1,14-14h16.65V60.3A14,14,0,0,1,100.41,74.28Z"/><path class="cls-2" d="M59.61,74.28A21.51,21.51,0,0,0,38.13,95.76v24.15H62.28A21.51,21.51,0,0,0,83.76,98.43V74.28Zm16.65,7.5V98.43a14,14,0,0,1-14,14H45.63V95.76a14,14,0,0,1,14-14Z"/></g></g></svg>